<svg xmlns="http://www.w3.org/2000/svg" width="1169" height="558" viewBox="0 0 1169 558" role="img" aria-label="the ccfind flat list: each hit as a timestamp and profile-tagged directory, the matching snippet beneath it, and the exact resume command to copy">
  <rect width="1169" height="558" rx="10" fill="#1e1e2e"/>
  <rect width="1169" height="30" rx="10" fill="#181825"/>
  <rect y="24" width="1169" height="6" fill="#181825"/>
  <circle cx="18" cy="15" r="5.5" fill="#f38ba8"/><circle cx="36" cy="15" r="5.5" fill="#f9e2af"/><circle cx="54" cy="15" r="5.5" fill="#a6e3a1"/>
  <text x="584" y="20" text-anchor="middle" font-family="'Cascadia Code','Fira Code',SFMono-Regular,Consolas,Menlo,monospace" font-size="12" fill="#9399b2">ccfind</text>
  <text y="57" font-family="'Cascadia Code','Fira Code',SFMono-Regular,Consolas,Menlo,monospace" font-size="13" xml:space="preserve" fill="#cdd6f4"><tspan x="20.00 27.85 35.70 43.55 51.40 59.25 67.10 74.95 82.80 90.65 98.50 106.35 114.20 122.05 129.90 137.75 145.60 153.45 161.30 169.15 177.00 184.85 192.70 200.55 208.40 216.25 224.10 231.95 239.80 247.65 255.50 263.35 271.20 279.05 286.90">% ccfind -N -r "connection refused"</tspan></text>
  <text y="97" font-family="'Cascadia Code','Fira Code',SFMono-Regular,Consolas,Menlo,monospace" font-size="13" xml:space="preserve" fill="#cdd6f4"><tspan x="20.00 27.85 35.70 43.55 51.40 59.25 67.10 74.95 82.80 90.65 98.50 106.35 114.20 122.05 129.90 137.75 145.60 153.45 161.30">2026-08-20 19:49:41</tspan><tspan x="169.15 177.00">  </tspan><tspan x="184.85 192.70 200.55 208.40 216.25 224.10 231.95 239.80 247.65" fill="#9399b2"> (8m ago)</tspan><tspan x="255.50 263.35">  </tspan><tspan x="271.20 279.05 286.90 294.75" fill="#94e2d5">work</tspan><tspan x="302.60" fill="#9399b2">:</tspan><tspan x="310.45 318.30 326.15 334.00 341.85 349.70 357.55 365.40 373.25 381.10 388.95 396.80 404.65 412.50 420.35 428.20 436.05 443.90">~/code/api-gateway</tspan></text>
  <text y="117" font-family="'Cascadia Code','Fira Code',SFMono-Regular,Consolas,Menlo,monospace" font-size="13" xml:space="preserve" fill="#cdd6f4"><tspan x="20.00 27.85 35.70">   </tspan><tspan x="43.55 51.40 59.25 67.10 74.95 82.80 90.65 98.50 106.35 114.20 122.05 129.90 137.75 145.60 153.45 161.30 169.15 177.00 184.85 192.70 200.55 208.40 216.25 224.10 231.95 239.80 247.65 255.50 263.35 271.20 279.05 286.90 294.75 302.60 310.45 318.30 326.15 334.00 341.85 349.70 357.55 365.40 373.25 381.10" fill="#9399b2">…,"content":"staging deploy is dead again — </tspan><tspan x="388.95 396.80 404.65 412.50 420.35 428.20 436.05 443.90 451.75 459.60 467.45 475.30 483.15 491.00 498.85 506.70 514.55 522.40" fill="#f9e2af">connection refused</tspan><tspan x="530.25 538.10 545.95 553.80 561.65 569.50 577.35 585.20 593.05 600.90 608.75 616.60 624.45 632.30 640.15 648.00 655.85 663.70 671.55 679.40 687.25 695.10 702.95 710.80 718.65 726.50 734.35 742.20 750.05 757.90 765.75 773.60 781.45 789.30 797.15" fill="#9399b2"> on every request to the pooler"}}…</tspan></text>
  <text y="137" font-family="'Cascadia Code','Fira Code',SFMono-Regular,Consolas,Menlo,monospace" font-size="13" xml:space="preserve" fill="#cdd6f4"><tspan x="20.00 27.85 35.70">   </tspan><tspan x="43.55 51.40 59.25 67.10 74.95 82.80 90.65 98.50 106.35 114.20 122.05 129.90 137.75 145.60 153.45 161.30 169.15 177.00 184.85 192.70 200.55 208.40 216.25 224.10" fill="#a6e3a1">claude --resume 4f2c9a1e</tspan></text>
  <text y="157" font-family="'Cascadia Code','Fira Code',SFMono-Regular,Consolas,Menlo,monospace" font-size="13" xml:space="preserve" fill="#cdd6f4"><tspan x="20.00 27.85 35.70 43.55 51.40 59.25 67.10 74.95 82.80 90.65 98.50 106.35 114.20 122.05 129.90 137.75 145.60 153.45 161.30 169.15 177.00 184.85 192.70 200.55 208.40 216.25 224.10 231.95 239.80 247.65 255.50 263.35 271.20 279.05 286.90 294.75 302.60 310.45 318.30 326.15 334.00 341.85" fill="#9399b2">──────────────────────────────────────────</tspan></text>
  <text y="177" font-family="'Cascadia Code','Fira Code',SFMono-Regular,Consolas,Menlo,monospace" font-size="13" xml:space="preserve" fill="#cdd6f4"><tspan x="20.00 27.85 35.70 43.55 51.40 59.25 67.10 74.95 82.80 90.65 98.50 106.35 114.20 122.05 129.90 137.75 145.60 153.45 161.30">2026-08-20 19:17:41</tspan><tspan x="169.15 177.00">  </tspan><tspan x="184.85 192.70 200.55 208.40 216.25 224.10 231.95 239.80 247.65" fill="#9399b2">(40m ago)</tspan><tspan x="255.50 263.35">  </tspan><tspan x="271.20 279.05 286.90 294.75 302.60 310.45 318.30" fill="#f5c2e7">nas:ops</tspan><tspan x="326.15" fill="#9399b2">:</tspan><tspan x="334.00 341.85 349.70 357.55 365.40 373.25 381.10 388.95 396.80 404.65 412.50 420.35 428.20 436.05 443.90 451.75">/srv/media-tools</tspan></text>
  <text y="197" font-family="'Cascadia Code','Fira Code',SFMono-Regular,Consolas,Menlo,monospace" font-size="13" xml:space="preserve" fill="#cdd6f4"><tspan x="20.00 27.85 35.70">   </tspan><tspan x="43.55 51.40 59.25 67.10 74.95 82.80 90.65 98.50 106.35 114.20 122.05 129.90 137.75 145.60 153.45 161.30 169.15 177.00 184.85 192.70 200.55 208.40 216.25 224.10 231.95 239.80 247.65 255.50 263.35 271.20 279.05 286.90 294.75 302.60 310.45 318.30 326.15 334.00 341.85 349.70 357.55 365.40 373.25 381.10" fill="#9399b2">…","content":"rclone mount died overnight — </tspan><tspan x="388.95 396.80 404.65 412.50 420.35 428.20 436.05 443.90 451.75 459.60 467.45 475.30 483.15 491.00 498.85 506.70 514.55 522.40" fill="#f9e2af">connection refused</tspan><tspan x="530.25 538.10 545.95 553.80 561.65 569.50 577.35 585.20 593.05 600.90 608.75 616.60 624.45 632.30 640.15 648.00 655.85 663.70 671.55 679.40 687.25 695.10 702.95 710.80 718.65 726.50 734.35 742.20 750.05 757.90 765.75" fill="#9399b2"> from the metadata endpoint"}}…</tspan></text>
  <text y="217" font-family="'Cascadia Code','Fira Code',SFMono-Regular,Consolas,Menlo,monospace" font-size="13" xml:space="preserve" fill="#cdd6f4"><tspan x="20.00 27.85 35.70">   </tspan><tspan x="43.55 51.40 59.25 67.10 74.95 82.80 90.65 98.50 106.35 114.20 122.05 129.90 137.75 145.60 153.45 161.30 169.15 177.00 184.85 192.70 200.55 208.40 216.25 224.10 231.95 239.80 247.65 255.50 263.35 271.20 279.05 286.90 294.75 302.60 310.45 318.30 326.15 334.00 341.85 349.70 357.55 365.40 373.25 381.10 388.95 396.80 404.65 412.50 420.35 428.20 436.05 443.90 451.75 459.60 467.45 475.30 483.15 491.00 498.85 506.70 514.55 522.40 530.25 538.10 545.95 553.80 561.65 569.50 577.35 585.20 593.05 600.90 608.75 616.60 624.45 632.30 640.15 648.00 655.85 663.70 671.55 679.40 687.25 695.10 702.95 710.80 718.65 726.50 734.35 742.20 750.05 757.90 765.75 773.60 781.45 789.30 797.15 805.00 812.85 820.70 828.55 836.40 844.25 852.10 859.95 867.80 875.65 883.50 891.35 899.20 907.05 914.90 922.75 930.60 938.45 946.30 954.15 962.00 969.85 977.70 985.55 993.40 1001.25 1009.10 1016.95 1024.80 1032.65 1040.50 1048.35 1056.20 1064.05 1071.90 1079.75 1087.60 1095.45 1103.30 1111.15" fill="#a6e3a1">ssh -t nas 'cd /srv/media-tools &amp;&amp; exec "$SHELL" -ic \[\ ~/.claude\ =\ \"\$HOME/.claude\"\ \]\ \|\|\ export\ CLAUDE_CONFIG_DIR=~/.claude\</tspan></text>
  <text y="237" font-family="'Cascadia Code','Fira Code',SFMono-Regular,Consolas,Menlo,monospace" font-size="13" xml:space="preserve" fill="#cdd6f4"><tspan x="20.00 27.85 35.70 43.55 51.40 59.25 67.10 74.95 82.80 90.65 98.50 106.35 114.20 122.05 129.90 137.75 145.60 153.45 161.30 169.15 177.00 184.85 192.70 200.55 208.40 216.25 224.10 231.95 239.80 247.65 255.50 263.35 271.20 279.05 286.90 294.75 302.60 310.45 318.30 326.15 334.00 341.85" fill="#9399b2">──────────────────────────────────────────</tspan></text>
  <text y="257" font-family="'Cascadia Code','Fira Code',SFMono-Regular,Consolas,Menlo,monospace" font-size="13" xml:space="preserve" fill="#cdd6f4"><tspan x="20.00 27.85 35.70 43.55 51.40 59.25 67.10 74.95 82.80 90.65 98.50 106.35 114.20 122.05 129.90 137.75 145.60 153.45 161.30">2026-08-20 19:02:41</tspan><tspan x="169.15 177.00">  </tspan><tspan x="184.85 192.70 200.55 208.40 216.25 224.10 231.95 239.80 247.65" fill="#9399b2">(55m ago)</tspan><tspan x="255.50 263.35">  </tspan><tspan x="271.20 279.05 286.90 294.75 302.60 310.45 318.30 326.15" fill="#94e2d5">personal</tspan><tspan x="334.00" fill="#9399b2">:</tspan><tspan x="341.85 349.70 357.55 365.40 373.25 381.10 388.95 396.80 404.65 412.50 420.35 428.20 436.05 443.90 451.75 459.60 467.45 475.30 483.15 491.00 498.85">~/code-private/ccfind</tspan></text>
  <text y="277" font-family="'Cascadia Code','Fira Code',SFMono-Regular,Consolas,Menlo,monospace" font-size="13" xml:space="preserve" fill="#cdd6f4"><tspan x="20.00 27.85 35.70">   </tspan><tspan x="43.55 51.40 59.25 67.10 74.95 82.80 90.65 98.50 106.35 114.20 122.05 129.90 137.75 145.60 153.45 161.30 169.15 177.00 184.85 192.70 200.55 208.40 216.25 224.10 231.95 239.80 247.65 255.50 263.35 271.20 279.05 286.90 294.75 302.60 310.45 318.30 326.15 334.00 341.85 349.70 357.55 365.40 373.25 381.10 388.95 396.80" fill="#9399b2">…e":"user","content":"the remote preview says </tspan><tspan x="404.65 412.50 420.35 428.20 436.05 443.90 451.75 459.60 467.45 475.30 483.15 491.00 498.85 506.70 514.55 522.40 530.25 538.10" fill="#f9e2af">connection refused</tspan><tspan x="545.95 553.80 561.65 569.50 577.35 585.20 593.05 600.90 608.75 616.60 624.45 632.30 640.15 648.00 655.85 663.70 671.55 679.40 687.25 695.10 702.95 710.80 718.65 726.50 734.35 742.20 750.05 757.90 765.75 773.60 781.45 789.30 797.15 805.00 812.85 820.70 828.55 836.40 844.25 852.10 859.95 867.80 875.65 883.50 891.35 899.20 907.05 914.90 922.75" fill="#9399b2"> when the host is only reachable over the VPN"}}…</tspan></text>
  <text y="297" font-family="'Cascadia Code','Fira Code',SFMono-Regular,Consolas,Menlo,monospace" font-size="13" xml:space="preserve" fill="#cdd6f4"><tspan x="20.00 27.85 35.70">   </tspan><tspan x="43.55 51.40 59.25 67.10 74.95 82.80 90.65 98.50 106.35 114.20 122.05 129.90 137.75 145.60 153.45 161.30 169.15 177.00 184.85 192.70 200.55 208.40 216.25 224.10 231.95 239.80 247.65 255.50 263.35 271.20 279.05 286.90 294.75 302.60 310.45 318.30 326.15 334.00 341.85 349.70 357.55 365.40 373.25 381.10 388.95 396.80 404.65 412.50 420.35 428.20 436.05 443.90 451.75 459.60 467.45 475.30 483.15 491.00 498.85 506.70 514.55 522.40 530.25 538.10 545.95 553.80 561.65 569.50 577.35 585.20 593.05 600.90 608.75 616.60 624.45 632.30 640.15 648.00 655.85 663.70 671.55 679.40 687.25 695.10 702.95 710.80 718.65 726.50 734.35" fill="#a6e3a1">cd ~/code-private/ccfind &amp;&amp; CLAUDE_CONFIG_DIR=~/.claude-personal claude --resume 7b3e05d4</tspan></text>
  <text y="317" font-family="'Cascadia Code','Fira Code',SFMono-Regular,Consolas,Menlo,monospace" font-size="13" xml:space="preserve" fill="#cdd6f4"><tspan x="20.00 27.85 35.70 43.55 51.40 59.25 67.10 74.95 82.80 90.65 98.50 106.35 114.20 122.05 129.90 137.75 145.60 153.45 161.30 169.15 177.00 184.85 192.70 200.55 208.40 216.25 224.10 231.95 239.80 247.65 255.50 263.35 271.20 279.05 286.90 294.75 302.60 310.45 318.30 326.15 334.00 341.85" fill="#9399b2">──────────────────────────────────────────</tspan></text>
  <text y="337" font-family="'Cascadia Code','Fira Code',SFMono-Regular,Consolas,Menlo,monospace" font-size="13" xml:space="preserve" fill="#cdd6f4"><tspan x="20.00 27.85 35.70 43.55 51.40 59.25 67.10 74.95 82.80 90.65 98.50 106.35 114.20 122.05 129.90 137.75 145.60 153.45 161.30">2026-08-20 17:57:41</tspan><tspan x="169.15 177.00">  </tspan><tspan x="184.85 192.70 200.55 208.40 216.25 224.10 231.95 239.80 247.65" fill="#9399b2"> (2h ago)</tspan><tspan x="255.50 263.35">  </tspan><tspan x="271.20 279.05 286.90 294.75 302.60 310.45 318.30 326.15 334.00" fill="#f5c2e7">nas:media</tspan><tspan x="341.85" fill="#9399b2">:</tspan><tspan x="349.70 357.55 365.40 373.25 381.10 388.95 396.80 404.65 412.50 420.35 428.20">/srv/backup</tspan></text>
  <text y="357" font-family="'Cascadia Code','Fira Code',SFMono-Regular,Consolas,Menlo,monospace" font-size="13" xml:space="preserve" fill="#cdd6f4"><tspan x="20.00 27.85 35.70">   </tspan><tspan x="43.55 51.40 59.25 67.10 74.95 82.80 90.65 98.50 106.35 114.20 122.05 129.90 137.75 145.60 153.45 161.30 169.15 177.00 184.85 192.70 200.55 208.40 216.25 224.10 231.95 239.80 247.65 255.50 263.35 271.20 279.05 286.90 294.75 302.60 310.45 318.30 326.15 334.00 341.85 349.70 357.55 365.40 373.25 381.10 388.95 396.80" fill="#9399b2">…role":"user","content":"restic check ends in </tspan><tspan x="404.65 412.50 420.35 428.20 436.05 443.90 451.75 459.60 467.45 475.30 483.15 491.00 498.85 506.70 514.55 522.40 530.25 538.10" fill="#f9e2af">connection refused</tspan><tspan x="545.95 553.80 561.65 569.50 577.35 585.20 593.05 600.90 608.75 616.60 624.45 632.30 640.15 648.00 655.85 663.70 671.55 679.40 687.25 695.10 702.95 710.80 718.65 726.50 734.35 742.20 750.05 757.90 765.75 773.60 781.45 789.30 797.15 805.00 812.85 820.70 828.55 836.40" fill="#9399b2"> halfway through the snapshot list"}}…</tspan></text>
  <text y="377" font-family="'Cascadia Code','Fira Code',SFMono-Regular,Consolas,Menlo,monospace" font-size="13" xml:space="preserve" fill="#cdd6f4"><tspan x="20.00 27.85 35.70">   </tspan><tspan x="43.55 51.40 59.25 67.10 74.95 82.80 90.65 98.50 106.35 114.20 122.05 129.90 137.75 145.60 153.45 161.30 169.15 177.00 184.85 192.70 200.55 208.40 216.25 224.10 231.95 239.80 247.65 255.50 263.35 271.20 279.05 286.90 294.75 302.60 310.45 318.30 326.15 334.00 341.85 349.70 357.55 365.40 373.25 381.10 388.95 396.80 404.65 412.50 420.35 428.20 436.05 443.90 451.75 459.60 467.45 475.30 483.15 491.00 498.85 506.70 514.55 522.40 530.25 538.10 545.95 553.80 561.65 569.50 577.35 585.20 593.05 600.90 608.75 616.60 624.45 632.30 640.15 648.00 655.85 663.70 671.55 679.40 687.25 695.10 702.95 710.80 718.65 726.50 734.35 742.20 750.05 757.90 765.75 773.60 781.45 789.30 797.15 805.00 812.85 820.70 828.55 836.40 844.25 852.10 859.95 867.80 875.65 883.50 891.35 899.20 907.05 914.90 922.75 930.60 938.45 946.30 954.15 962.00 969.85 977.70 985.55 993.40 1001.25 1009.10 1016.95 1024.80 1032.65 1040.50 1048.35 1056.20 1064.05 1071.90 1079.75 1087.60 1095.45 1103.30 1111.15" fill="#a6e3a1">ssh -t nas 'cd /srv/backup &amp;&amp; exec "$SHELL" -ic \[\ ~/.claude-media\ =\ \"\$HOME/.claude\"\ \]\ \|\|\ export\ CLAUDE_CONFIG_DIR=~/.claude</tspan></text>
  <text y="397" font-family="'Cascadia Code','Fira Code',SFMono-Regular,Consolas,Menlo,monospace" font-size="13" xml:space="preserve" fill="#cdd6f4"><tspan x="20.00 27.85 35.70 43.55 51.40 59.25 67.10 74.95 82.80 90.65 98.50 106.35 114.20 122.05 129.90 137.75 145.60 153.45 161.30 169.15 177.00 184.85 192.70 200.55 208.40 216.25 224.10 231.95 239.80 247.65 255.50 263.35 271.20 279.05 286.90 294.75 302.60 310.45 318.30 326.15 334.00 341.85" fill="#9399b2">──────────────────────────────────────────</tspan></text>
  <text y="417" font-family="'Cascadia Code','Fira Code',SFMono-Regular,Consolas,Menlo,monospace" font-size="13" xml:space="preserve" fill="#cdd6f4"><tspan x="20.00 27.85 35.70 43.55 51.40 59.25 67.10 74.95 82.80 90.65 98.50 106.35 114.20 122.05 129.90 137.75 145.60 153.45 161.30">2026-08-20 16:57:41</tspan><tspan x="169.15 177.00">  </tspan><tspan x="184.85 192.70 200.55 208.40 216.25 224.10 231.95 239.80 247.65" fill="#9399b2"> (3h ago)</tspan><tspan x="255.50 263.35">  </tspan><tspan x="271.20 279.05 286.90 294.75" fill="#94e2d5">work</tspan><tspan x="302.60" fill="#9399b2">:</tspan><tspan x="310.45 318.30 326.15 334.00 341.85 349.70 357.55 365.40 373.25 381.10 388.95 396.80">~/code/infra</tspan></text>
  <text y="437" font-family="'Cascadia Code','Fira Code',SFMono-Regular,Consolas,Menlo,monospace" font-size="13" xml:space="preserve" fill="#cdd6f4"><tspan x="20.00 27.85 35.70">   </tspan><tspan x="43.55 51.40 59.25 67.10 74.95 82.80 90.65 98.50 106.35 114.20 122.05 129.90 137.75 145.60 153.45 161.30 169.15 177.00 184.85 192.70 200.55 208.40 216.25 224.10 231.95 239.80 247.65 255.50 263.35 271.20 279.05 286.90 294.75 302.60 310.45 318.30 326.15 334.00 341.85 349.70 357.55 365.40 373.25 381.10 388.95 396.80" fill="#9399b2">…r","content":"terraform apply keeps failing: </tspan><tspan x="404.65 412.50 420.35 428.20 436.05 443.90 451.75 459.60 467.45 475.30 483.15 491.00 498.85 506.70 514.55 522.40 530.25 538.10" fill="#f9e2af">connection refused</tspan><tspan x="545.95 553.80 561.65 569.50 577.35 585.20 593.05 600.90 608.75 616.60 624.45 632.30 640.15 648.00 655.85 663.70 671.55 679.40 687.25 695.10 702.95 710.80 718.65 726.50 734.35 742.20 750.05 757.90 765.75 773.60 781.45 789.30 797.15" fill="#9399b2"> talking to the vault sidecar"}}…</tspan></text>
  <text y="457" font-family="'Cascadia Code','Fira Code',SFMono-Regular,Consolas,Menlo,monospace" font-size="13" xml:space="preserve" fill="#cdd6f4"><tspan x="20.00 27.85 35.70">   </tspan><tspan x="43.55 51.40 59.25 67.10 74.95 82.80 90.65 98.50 106.35 114.20 122.05 129.90 137.75 145.60 153.45 161.30 169.15 177.00 184.85 192.70 200.55 208.40 216.25 224.10 231.95 239.80 247.65 255.50 263.35 271.20 279.05 286.90 294.75 302.60 310.45 318.30 326.15 334.00 341.85 349.70 357.55 365.40 373.25" fill="#a6e3a1">cd ~/code/infra &amp;&amp; claude --resume 91ad7c60</tspan></text>
  <text y="477" font-family="'Cascadia Code','Fira Code',SFMono-Regular,Consolas,Menlo,monospace" font-size="13" xml:space="preserve" fill="#cdd6f4"><tspan x="20.00 27.85 35.70 43.55 51.40 59.25 67.10 74.95 82.80 90.65 98.50 106.35 114.20 122.05 129.90 137.75 145.60 153.45 161.30 169.15 177.00 184.85 192.70 200.55 208.40 216.25 224.10 231.95 239.80 247.65 255.50 263.35 271.20 279.05 286.90 294.75 302.60 310.45 318.30 326.15 334.00 341.85" fill="#9399b2">──────────────────────────────────────────</tspan></text>
  <text y="497" font-family="'Cascadia Code','Fira Code',SFMono-Regular,Consolas,Menlo,monospace" font-size="13" xml:space="preserve" fill="#cdd6f4"><tspan x="20.00 27.85 35.70 43.55 51.40 59.25 67.10 74.95 82.80 90.65 98.50 106.35 114.20 122.05 129.90 137.75 145.60 153.45 161.30">2026-08-18 19:57:41</tspan><tspan x="169.15 177.00">  </tspan><tspan x="184.85 192.70 200.55 208.40 216.25 224.10 231.95 239.80 247.65" fill="#9399b2"> (2d ago)</tspan><tspan x="255.50 263.35">  </tspan><tspan x="271.20 279.05 286.90 294.75 302.60 310.45 318.30 326.15" fill="#94e2d5">personal</tspan><tspan x="334.00" fill="#9399b2">:</tspan><tspan x="341.85 349.70 357.55 365.40 373.25 381.10">~/.zsh</tspan></text>
  <text y="517" font-family="'Cascadia Code','Fira Code',SFMono-Regular,Consolas,Menlo,monospace" font-size="13" xml:space="preserve" fill="#cdd6f4"><tspan x="20.00 27.85 35.70">   </tspan><tspan x="43.55 51.40 59.25 67.10 74.95 82.80 90.65 98.50 106.35 114.20 122.05 129.90 137.75 145.60 153.45 161.30 169.15 177.00 184.85 192.70 200.55 208.40 216.25 224.10 231.95 239.80 247.65 255.50 263.35 271.20 279.05 286.90 294.75 302.60 310.45 318.30 326.15 334.00 341.85 349.70 357.55 365.40 373.25 381.10 388.95 396.80" fill="#9399b2">…ser","content":"zle widget rebinding after a </tspan><tspan x="404.65 412.50 420.35 428.20 436.05 443.90 451.75 459.60 467.45 475.30 483.15 491.00 498.85 506.70 514.55 522.40 530.25 538.10" fill="#f9e2af">connection refused</tspan><tspan x="545.95 553.80 561.65 569.50 577.35 585.20 593.05 600.90 608.75 616.60 624.45 632.30 640.15 648.00 655.85 663.70 671.55 679.40 687.25 695.10 702.95 710.80 718.65" fill="#9399b2"> in the prompt hook"}}…</tspan></text>
  <text y="537" font-family="'Cascadia Code','Fira Code',SFMono-Regular,Consolas,Menlo,monospace" font-size="13" xml:space="preserve" fill="#cdd6f4"><tspan x="20.00 27.85 35.70">   </tspan><tspan x="43.55 51.40 59.25 67.10 74.95 82.80 90.65 98.50 106.35 114.20 122.05 129.90 137.75 145.60 153.45 161.30 169.15 177.00 184.85 192.70 200.55 208.40 216.25 224.10 231.95 239.80 247.65 255.50 263.35 271.20 279.05 286.90 294.75 302.60 310.45 318.30 326.15 334.00 341.85 349.70 357.55 365.40 373.25 381.10 388.95 396.80 404.65 412.50 420.35 428.20 436.05 443.90 451.75 459.60 467.45 475.30 483.15 491.00 498.85 506.70 514.55 522.40 530.25 538.10 545.95 553.80 561.65 569.50 577.35 585.20 593.05 600.90 608.75 616.60" fill="#a6e3a1">cd ~/.zsh &amp;&amp; CLAUDE_CONFIG_DIR=~/.claude-personal claude --resume c08f14b2</tspan></text>
</svg>
